<svg xmlns="http://www.w3.org/2000/svg" width="27.68" height="22.524" viewBox="0 0 27.68 22.524"><path d="M29.093,7.169a11.481,11.481,0,0,1-3.261.9,5.7,5.7,0,0,0,2.5-3.144A11.284,11.284,0,0,1,24.723,6.3,5.677,5.677,0,0,0,14.9,10.184a5.56,5.56,0,0,0,.147,1.3A16.094,16.094,0,0,1,3.337,5.538,5.69,5.69,0,0,0,5.1,13.128a5.547,5.547,0,0,1-2.581-.71v.07a5.684,5.684,0,0,0,4.558,5.572,5.716,5.716,0,0,1-1.5.2,5.357,5.357,0,0,1-1.068-.106A5.688,5.688,0,0,0,9.824,22.1a11.386,11.386,0,0,1-7.056,2.434,11.511,11.511,0,0,1-1.355-.082,15.873,15.873,0,0,0,8.693,2.569c10.458,0,16.171-8.663,16.171-16.177,0-.246-.006-.493-.018-.733A11.56,11.56,0,0,0,29.093,7.169Z" transform="translate(-1.413 -4.5)"/></svg>