<svg xmlns="http://www.w3.org/2000/svg" width="29.093" height="29.093" viewBox="0 0 29.093 29.093"><path d="M29.093,15.109A14.548,14.548,0,0,1,10.241,29a16.352,16.352,0,0,0,1.807-3.813c.176-.68.9-3.461.9-3.461A3.9,3.9,0,0,0,16.283,23.4c4.387,0,7.549-4.036,7.549-9.051,0-4.8-3.924-8.4-8.968-8.4-6.276,0-9.614,4.211-9.614,8.8,0,2.135,1.138,4.792,2.95,5.637.276.129.422.07.487-.194.047-.2.293-1.191.4-1.648a.435.435,0,0,0-.1-.416,5.729,5.729,0,0,1-1.073-3.32A6.3,6.3,0,0,1,14.488,8.5a5.743,5.743,0,0,1,6.077,5.918c0,3.936-1.988,6.663-4.575,6.663a2.11,2.11,0,0,1-2.153-2.628c.411-1.73,1.2-3.6,1.2-4.845A1.827,1.827,0,0,0,13.2,11.566c-1.461,0-2.634,1.507-2.634,3.531A5.241,5.241,0,0,0,11,17.256s-1.437,6.088-1.7,7.226a14.081,14.081,0,0,0-.053,4.176A14.548,14.548,0,1,1,29.093,15.109Z" transform="translate(0 -0.563)"/></svg>